<svg width="28" height="26" viewBox="0 0 28 26" fill="none" xmlns="http://www.w3.org/2000/svg">
<path fill-rule="evenodd" clip-rule="evenodd" d="M15 21C15.0001 21.5046 14.8096 21.9906 14.4665 22.3605C14.1234 22.7305 13.6531 22.9572 13.15 22.995L13 23H11C10.4954 23.0002 10.0094 22.8096 9.63942 22.4665C9.26944 22.1234 9.04281 21.6532 9.00497 21.15L8.99997 21H15ZM12 4C13.8149 3.99997 15.559 4.70489 16.8642 5.96607C18.1694 7.22726 18.9337 8.94609 18.996 10.76L19 11V14.764L20.822 18.408C20.9015 18.567 20.9413 18.7429 20.9379 18.9206C20.9346 19.0984 20.8882 19.2727 20.8028 19.4286C20.7174 19.5845 20.5955 19.7174 20.4475 19.8158C20.2994 19.9143 20.1298 19.9754 19.953 19.994L19.838 20H4.16197C3.98413 20.0001 3.80894 19.957 3.65139 19.8745C3.49385 19.792 3.35865 19.6725 3.25739 19.5264C3.15613 19.3802 3.09182 19.2116 3.06997 19.0351C3.04813 18.8586 3.0694 18.6795 3.13197 18.513L3.17797 18.408L4.99997 14.764V11C4.99997 9.14348 5.73747 7.36301 7.05022 6.05025C8.36298 4.7375 10.1435 4 12 4ZM12 6C10.7115 6.00007 9.47281 6.49754 8.54219 7.38866C7.61158 8.27978 7.06089 9.49575 7.00497 10.783L6.99997 11V14.764C6.99998 15.012 6.95386 15.2579 6.86397 15.489L6.78897 15.659L5.61897 18H18.382L17.212 15.658C17.101 15.4363 17.0321 15.1959 17.009 14.949L17 14.764V11C17 9.67392 16.4732 8.40215 15.5355 7.46447C14.5978 6.52678 13.3261 6 12 6Z" fill="white"/>
<circle cx="21" cy="7" r="7" fill="white"/>
<path d="M19.264 9.544L21.312 7.384C21.52 7.17067 21.6827 6.98667 21.8 6.832C21.9173 6.672 22 6.52533 22.048 6.392C22.1013 6.25867 22.128 6.12 22.128 5.976C22.128 5.69333 22.0373 5.472 21.856 5.312C21.6747 5.152 21.44 5.072 21.152 5.072C20.8693 5.072 20.6213 5.14133 20.408 5.28C20.1947 5.41333 20.0053 5.62133 19.84 5.904L19.312 5.464C19.5307 5.10133 19.7947 4.82933 20.104 4.648C20.4133 4.46133 20.7707 4.368 21.176 4.368C21.5173 4.368 21.8133 4.43467 22.064 4.568C22.32 4.70133 22.5173 4.888 22.656 5.128C22.7947 5.368 22.864 5.648 22.864 5.968C22.864 6.19733 22.8347 6.40267 22.776 6.584C22.7227 6.76533 22.624 6.952 22.48 7.144C22.3413 7.33067 22.1467 7.55467 21.896 7.816L20.24 9.52L19.264 9.544ZM19.264 10V9.544L19.904 9.328H22.992V10H19.264Z" fill="black"/>
</svg>
